<mxfile host="app.diagrams.net" modified="2022-05-10T11:39:11.575Z" agent="5.0 (Windows NT 10.0; Win64; x64) AppleWebKit/537.36 (KHTML, like Gecko) Chrome/100.0.4896.60 Safari/537.36" etag="h0wzbNA_izSYOLHOpTJW" version="18.0.2" type="github">
  <diagram id="GBcD6GNt4udlwMVQdo0A" name="Page-1">
    <mxGraphModel dx="1422" dy="794" grid="1" gridSize="10" guides="1" tooltips="1" connect="1" arrows="1" fold="1" page="1" pageScale="1" pageWidth="827" pageHeight="1169" math="0" shadow="0">
      <root>
        <mxCell id="0" />
        <mxCell id="1" parent="0" />
        <mxCell id="uxq83OpnSM2mhxZgc-Vr-6" value="" style="edgeStyle=orthogonalEdgeStyle;rounded=0;orthogonalLoop=1;jettySize=auto;html=1;" edge="1" parent="1" source="uxq83OpnSM2mhxZgc-Vr-1" target="uxq83OpnSM2mhxZgc-Vr-2">
          <mxGeometry relative="1" as="geometry" />
        </mxCell>
        <mxCell id="uxq83OpnSM2mhxZgc-Vr-1" value="INÍCIO" style="ellipse;whiteSpace=wrap;html=1;fillColor=#dae8fc;strokeColor=#6c8ebf;" vertex="1" parent="1">
          <mxGeometry x="330" width="170" height="80" as="geometry" />
        </mxCell>
        <mxCell id="uxq83OpnSM2mhxZgc-Vr-7" value="" style="edgeStyle=orthogonalEdgeStyle;rounded=0;orthogonalLoop=1;jettySize=auto;html=1;" edge="1" parent="1" source="uxq83OpnSM2mhxZgc-Vr-2" target="uxq83OpnSM2mhxZgc-Vr-3">
          <mxGeometry relative="1" as="geometry" />
        </mxCell>
        <mxCell id="uxq83OpnSM2mhxZgc-Vr-2" value="hora,min,phr,total2,total3" style="shape=parallelogram;perimeter=parallelogramPerimeter;whiteSpace=wrap;html=1;fixedSize=1;fillColor=#ffe6cc;strokeColor=#d79b00;" vertex="1" parent="1">
          <mxGeometry x="330" y="150" width="170" height="60" as="geometry" />
        </mxCell>
        <mxCell id="uxq83OpnSM2mhxZgc-Vr-8" value="" style="edgeStyle=orthogonalEdgeStyle;rounded=0;orthogonalLoop=1;jettySize=auto;html=1;" edge="1" parent="1" source="uxq83OpnSM2mhxZgc-Vr-3" target="uxq83OpnSM2mhxZgc-Vr-4">
          <mxGeometry relative="1" as="geometry" />
        </mxCell>
        <mxCell id="uxq83OpnSM2mhxZgc-Vr-3" value="&lt;div&gt;total2&amp;lt;-hora*phr&lt;/div&gt;&lt;div&gt;total3&amp;lt;-min/60*phr&lt;/div&gt;&lt;div&gt;total&amp;lt;-total2+total3&lt;/div&gt;" style="rounded=0;whiteSpace=wrap;html=1;fillColor=#f8cecc;strokeColor=#b85450;" vertex="1" parent="1">
          <mxGeometry x="330" y="290" width="170" height="60" as="geometry" />
        </mxCell>
        <mxCell id="uxq83OpnSM2mhxZgc-Vr-9" value="" style="edgeStyle=orthogonalEdgeStyle;rounded=0;orthogonalLoop=1;jettySize=auto;html=1;" edge="1" parent="1" source="uxq83OpnSM2mhxZgc-Vr-4" target="uxq83OpnSM2mhxZgc-Vr-5">
          <mxGeometry relative="1" as="geometry" />
        </mxCell>
        <mxCell id="uxq83OpnSM2mhxZgc-Vr-4" value="total" style="shape=document;whiteSpace=wrap;html=1;boundedLbl=1;fillColor=#d5e8d4;strokeColor=#82b366;" vertex="1" parent="1">
          <mxGeometry x="330" y="420" width="170" height="80" as="geometry" />
        </mxCell>
        <mxCell id="uxq83OpnSM2mhxZgc-Vr-5" value="FIM" style="ellipse;whiteSpace=wrap;html=1;fillColor=#dae8fc;strokeColor=#6c8ebf;" vertex="1" parent="1">
          <mxGeometry x="330" y="570" width="170" height="80" as="geometry" />
        </mxCell>
      </root>
    </mxGraphModel>
  </diagram>
</mxfile>
